<svg width="94" height="22" viewBox="0 0 94 22" fill="none" xmlns="http://www.w3.org/2000/svg">
<path d="M12.1699 12.373H4.29492V17.7051H13.5371V21H0.193359V1.09375H13.5098V4.41602H4.29492V9.16016H12.1699V12.373ZM19.8535 21H15.8887V0H19.8535V21ZM27.291 21H23.3262V6.20703H27.291V21ZM23.0938 2.37891C23.0938 1.78646 23.2897 1.29883 23.6816 0.916016C24.0827 0.533203 24.625 0.341797 25.3086 0.341797C25.9831 0.341797 26.5208 0.533203 26.9219 0.916016C27.3229 1.29883 27.5234 1.78646 27.5234 2.37891C27.5234 2.98047 27.3184 3.47266 26.9082 3.85547C26.5072 4.23828 25.974 4.42969 25.3086 4.42969C24.6432 4.42969 24.1055 4.23828 23.6953 3.85547C23.2943 3.47266 23.0938 2.98047 23.0938 2.37891Z" fill="#FF8D8D"/>
<path d="M48.4722 16.3447C48.3013 17.917 47.7373 19.1201 46.7803 19.9541C45.8301 20.7881 44.562 21.2051 42.9761 21.2051C41.8687 21.2051 40.8877 20.9282 40.0332 20.3745C39.1855 19.8208 38.5293 19.0381 38.0645 18.0264C37.5996 17.0078 37.3638 15.8457 37.3569 14.54V12.6021C37.3569 11.2759 37.5894 10.1001 38.0542 9.07471C38.519 8.04932 39.1855 7.25977 40.0537 6.70605C40.9287 6.14551 41.9336 5.86523 43.0684 5.86523C44.668 5.86523 45.9292 6.29932 46.8521 7.16748C47.7817 8.02881 48.3218 9.22168 48.4722 10.7461H47.2007C46.8862 8.20996 45.5088 6.94189 43.0684 6.94189C41.7148 6.94189 40.6348 7.44775 39.8281 8.45947C39.0283 9.47119 38.6284 10.8691 38.6284 12.6533V14.4785C38.6284 16.2012 39.0181 17.5752 39.7974 18.6006C40.5835 19.626 41.6431 20.1387 42.9761 20.1387C44.2954 20.1387 45.29 19.8242 45.96 19.1953C46.6299 18.5596 47.0435 17.6094 47.2007 16.3447H48.4722ZM50.5742 15.2886C50.5742 14.2222 50.7793 13.2617 51.1895 12.4072C51.6064 11.5527 52.1909 10.8896 52.9429 10.418C53.7017 9.93945 54.5596 9.7002 55.5166 9.7002C56.9932 9.7002 58.1895 10.2197 59.1055 11.2588C60.0215 12.291 60.4795 13.6616 60.4795 15.3706V15.627C60.4795 16.7002 60.271 17.6675 59.854 18.5288C59.4438 19.3833 58.8628 20.043 58.1108 20.5078C57.3589 20.9727 56.501 21.2051 55.5371 21.2051C54.0674 21.2051 52.8711 20.689 51.9482 19.6567C51.0322 18.6177 50.5742 17.2437 50.5742 15.5347V15.2886ZM51.8047 15.627C51.8047 16.9531 52.1465 18.0435 52.8301 18.8979C53.5205 19.7456 54.4229 20.1694 55.5371 20.1694C56.6445 20.1694 57.54 19.7456 58.2236 18.8979C58.9141 18.0435 59.2593 16.9189 59.2593 15.5244V15.2886C59.2593 14.4409 59.1021 13.665 58.7876 12.9609C58.4731 12.2568 58.0322 11.7134 57.4648 11.3306C56.8975 10.9409 56.248 10.7461 55.5166 10.7461C54.4229 10.7461 53.5308 11.1768 52.8403 12.0381C52.1499 12.8926 51.8047 14.0137 51.8047 15.4014V15.627ZM62.5303 15.3501C62.5303 13.6274 62.9131 12.2568 63.6787 11.2383C64.4512 10.2129 65.4971 9.7002 66.8164 9.7002C68.3135 9.7002 69.4551 10.2915 70.2412 11.4741V5.25H71.4614V21H70.313L70.2617 19.5234C69.4756 20.6445 68.3203 21.2051 66.7959 21.2051C65.5176 21.2051 64.4854 20.6924 63.6992 19.667C62.9199 18.6348 62.5303 17.2437 62.5303 15.4937V15.3501ZM63.771 15.5654C63.771 16.9805 64.0547 18.0981 64.6221 18.9185C65.1895 19.7319 65.9893 20.1387 67.0215 20.1387C68.5322 20.1387 69.6055 19.4722 70.2412 18.1392V12.9302C69.6055 11.4878 68.5391 10.7666 67.042 10.7666C66.0098 10.7666 65.2065 11.1733 64.6323 11.9868C64.0581 12.7935 63.771 13.9863 63.771 15.5654ZM78.9878 21.2051C78.0444 21.2051 77.1899 20.9727 76.4243 20.5078C75.6655 20.043 75.0742 19.397 74.6504 18.5698C74.2266 17.7358 74.0146 16.8027 74.0146 15.7705V15.3296C74.0146 14.2632 74.2197 13.3027 74.6299 12.4482C75.0469 11.5938 75.6245 10.9238 76.3628 10.4385C77.1011 9.94629 77.9009 9.7002 78.7622 9.7002C80.1089 9.7002 81.1753 10.1616 81.9614 11.0845C82.7544 12.0005 83.1509 13.2549 83.1509 14.8477V15.5347H75.2349V15.7705C75.2349 17.0283 75.5938 18.0776 76.3115 18.9185C77.0361 19.7524 77.9453 20.1694 79.0391 20.1694C79.6953 20.1694 80.2729 20.0498 80.772 19.8105C81.2778 19.5713 81.7358 19.1885 82.146 18.6621L82.915 19.2466C82.0127 20.5522 80.7036 21.2051 78.9878 21.2051ZM78.7622 10.7461C77.8394 10.7461 77.0601 11.0845 76.4243 11.7612C75.7954 12.438 75.4126 13.3472 75.2759 14.4888H81.9307V14.3555C81.8965 13.2891 81.5923 12.4209 81.0181 11.751C80.4438 11.0811 79.6919 10.7461 78.7622 10.7461ZM92.1846 18.1802C92.1846 17.5718 91.9385 17.083 91.4463 16.7139C90.9609 16.3447 90.2261 16.0576 89.2417 15.8525C88.2573 15.6406 87.4917 15.4014 86.9448 15.1348C86.4048 14.8613 86.0015 14.5298 85.7349 14.1401C85.4751 13.7505 85.3452 13.2788 85.3452 12.7251C85.3452 11.8501 85.7109 11.1289 86.4424 10.5615C87.1738 9.9873 88.1104 9.7002 89.252 9.7002C90.4893 9.7002 91.4805 10.0078 92.2256 10.623C92.9775 11.2314 93.3535 12.0278 93.3535 13.0122H92.123C92.123 12.3628 91.8496 11.8228 91.3027 11.3921C90.7627 10.9614 90.0791 10.7461 89.252 10.7461C88.4453 10.7461 87.7959 10.9272 87.3037 11.2896C86.8184 11.645 86.5757 12.1099 86.5757 12.6841C86.5757 13.2378 86.7773 13.6685 87.1807 13.9761C87.5908 14.2769 88.3325 14.5537 89.4058 14.8066C90.4858 15.0596 91.2925 15.3296 91.8257 15.6167C92.3657 15.9038 92.7656 16.249 93.0254 16.6523C93.2852 17.0557 93.415 17.5444 93.415 18.1187C93.415 19.0552 93.0356 19.8037 92.2769 20.3643C91.5249 20.9248 90.5405 21.2051 89.3237 21.2051C88.0317 21.2051 86.9824 20.894 86.1758 20.272C85.376 19.6431 84.9761 18.8501 84.9761 17.8931H86.2065C86.2544 18.6108 86.5552 19.1714 87.1089 19.5747C87.6694 19.9712 88.4077 20.1694 89.3237 20.1694C90.1782 20.1694 90.8687 19.9814 91.395 19.6055C91.9214 19.2295 92.1846 18.7544 92.1846 18.1802Z" fill="#5DC399"/>
</svg>
